<svg width="1200" height="1500" viewBox="0 0 1200 1500" fill="none" xmlns="http://www.w3.org/2000/svg">
  <rect width="1200" height="1500" fill="#07111A"/>
  <rect x="42" y="42" width="1116" height="1416" rx="44" stroke="url(#a)" stroke-opacity="0.28" stroke-width="2"/>
  <circle cx="928" cy="248" r="210" fill="#143242" fill-opacity="0.36"/>
  <circle cx="286" cy="1120" r="244" fill="#1B2434" fill-opacity="0.52"/>
  <path d="M252 1098C305.772 873.855 504.663 716 741 716C977.337 716 1176.23 873.855 1230 1098" fill="url(#b)"/>
  <circle cx="738" cy="498" r="176" fill="url(#c)"/>
  <path d="M188 136H344" stroke="#58D6DA" stroke-width="8" stroke-linecap="round"/>
  <path d="M188 198H516" stroke="#D7DEE5" stroke-opacity="0.92" stroke-width="4" stroke-linecap="round"/>
  <path d="M188 244H458" stroke="#94A8BA" stroke-opacity="0.86" stroke-width="4" stroke-linecap="round"/>
  <text x="188" y="108" fill="#F6F7F1" font-family="Manrope, Arial, sans-serif" font-size="30" letter-spacing="6">JB&#179;Ai / FOUNDER IMAGE TREATMENT</text>
  <rect x="112" y="1180" width="976" height="192" rx="28" fill="#0A1520" fill-opacity="0.82" stroke="url(#d)" stroke-opacity="0.18"/>
  <text x="168" y="1258" fill="#F6F7F1" font-family="Fraunces, Georgia, serif" font-size="58">Jonathan Blackburn</text>
  <text x="168" y="1312" fill="#D7DEE5" font-family="Manrope, Arial, sans-serif" font-size="26" letter-spacing="3">PUBLIC-SAFE PORTRAIT FRAME UNTIL APPROVED FOUNDER PHOTOGRAPHY ARRIVES</text>
  <text x="168" y="1354" fill="#94A8BA" font-family="Manrope, Arial, sans-serif" font-size="24">Resilience, proof, recovery, and systems held in a calmer signature image layer</text>
  <defs>
    <linearGradient id="a" x1="74" y1="76" x2="1108" y2="1440" gradientUnits="userSpaceOnUse">
      <stop stop-color="#58D6DA"/>
      <stop offset="0.56" stop-color="#74D3A4"/>
      <stop offset="1" stop-color="#E9C98F"/>
    </linearGradient>
    <linearGradient id="b" x1="430" y1="742" x2="1010" y2="1308" gradientUnits="userSpaceOnUse">
      <stop stop-color="#10283A"/>
      <stop offset="1" stop-color="#0A1622"/>
    </linearGradient>
    <linearGradient id="c" x1="562" y1="328" x2="902" y2="664" gradientUnits="userSpaceOnUse">
      <stop stop-color="#58D6DA"/>
      <stop offset="1" stop-color="#74D3A4"/>
    </linearGradient>
    <linearGradient id="d" x1="144" y1="1208" x2="1070" y2="1356" gradientUnits="userSpaceOnUse">
      <stop stop-color="#58D6DA"/>
      <stop offset="1" stop-color="#E9C98F"/>
    </linearGradient>
  </defs>
</svg>
