<svg width="1600" height="1000" viewBox="0 0 1600 1000" fill="none" xmlns="http://www.w3.org/2000/svg">
  <rect width="1600" height="1000" fill="#07111A"/>
  <rect x="44" y="44" width="1512" height="912" rx="40" stroke="url(#a)" stroke-opacity="0.24" stroke-width="2"/>
  <path d="M118 690C334 584.667 560 532 796 532C1032 532 1258 584.667 1474 690" stroke="#58D6DA" stroke-opacity="0.36" stroke-width="10" stroke-linecap="round"/>
  <path d="M186 760C374 654 577.333 601 796 601C1014.67 601 1218 654 1406 760" stroke="#74D3A4" stroke-opacity="0.3" stroke-width="10" stroke-linecap="round"/>
  <path d="M294 844C456.667 749.333 624 702 796 702C968 702 1135.33 749.333 1298 844" stroke="#E9C98F" stroke-opacity="0.26" stroke-width="8" stroke-linecap="round"/>
  <circle cx="1190" cy="258" r="188" fill="#132E3E" fill-opacity="0.34"/>
  <path d="M176 144H374" stroke="#58D6DA" stroke-width="8" stroke-linecap="round"/>
  <path d="M176 208H628" stroke="#D7DEE5" stroke-opacity="0.92" stroke-width="4" stroke-linecap="round"/>
  <path d="M176 258H524" stroke="#94A8BA" stroke-opacity="0.82" stroke-width="4" stroke-linecap="round"/>
  <text x="176" y="116" fill="#F6F7F1" font-family="Manrope, Arial, sans-serif" font-size="30" letter-spacing="7">GTR&#179; / STORY IMAGE TREATMENT</text>
  <text x="176" y="430" fill="#F6F7F1" font-family="Fraunces, Georgia, serif" font-size="86">GTR&#179;</text>
  <text x="176" y="512" fill="#D7DEE5" font-family="Fraunces, Georgia, serif" font-size="58">The loading state of the third rise</text>
  <text x="176" y="588" fill="#94A8BA" font-family="Manrope, Arial, sans-serif" font-size="30">Signature preview frame until approved manuscript or story imagery arrives</text>
  <rect x="176" y="660" width="582" height="112" rx="24" fill="#0A1520" fill-opacity="0.8" stroke="url(#b)" stroke-opacity="0.18"/>
  <text x="220" y="728" fill="#F6F7F1" font-family="Manrope, Arial, sans-serif" font-size="24" letter-spacing="3">RECOVERY / REBUILDING / FATHERHOOD / SYSTEMS</text>
  <defs>
    <linearGradient id="a" x1="86" y1="78" x2="1502" y2="930" gradientUnits="userSpaceOnUse">
      <stop stop-color="#58D6DA"/>
      <stop offset="0.56" stop-color="#74D3A4"/>
      <stop offset="1" stop-color="#E9C98F"/>
    </linearGradient>
    <linearGradient id="b" x1="212" y1="676" x2="740" y2="760" gradientUnits="userSpaceOnUse">
      <stop stop-color="#58D6DA"/>
      <stop offset="1" stop-color="#E9C98F"/>
    </linearGradient>
  </defs>
</svg>
