<svg width="1200" height="800" viewBox="0 0 1200 800" fill="none" xmlns="http://www.w3.org/2000/svg">
  <rect width="1200" height="800" fill="#09131D"/>
  <rect x="46" y="46" width="1108" height="708" rx="32" stroke="url(#a)" stroke-opacity="0.2" stroke-width="2"/>
  <rect x="110" y="148" width="472" height="302" rx="24" fill="#0D1A27"/>
  <rect x="144" y="182" width="404" height="234" rx="20" fill="url(#b)"/>
  <path d="M166 370L272 284L356 344L430 256L526 348" stroke="#E9C98F" stroke-width="10" stroke-linecap="round" stroke-linejoin="round"/>
  <rect x="660" y="184" width="388" height="18" rx="9" fill="#58D6DA"/>
  <rect x="660" y="250" width="310" height="14" rx="7" fill="#D7DEE5"/>
  <rect x="660" y="302" width="358" height="14" rx="7" fill="#94A8BA"/>
  <rect x="660" y="400" width="266" height="54" rx="18" fill="#0D1A27" stroke="#74D3A4" stroke-opacity="0.4"/>
  <text x="110" y="108" fill="#F6F7F1" font-family="Manrope, Arial, sans-serif" font-size="34" letter-spacing="6">PROJECT PREVIEW</text>
  <text x="110" y="706" fill="#94A8BA" font-family="Manrope, Arial, sans-serif" font-size="28">Use until final project stills or screenshots are uploaded</text>
  <defs>
    <linearGradient id="a" x1="88" y1="72" x2="1118" y2="736" gradientUnits="userSpaceOnUse">
      <stop stop-color="#58D6DA"/>
      <stop offset="0.58" stop-color="#74D3A4"/>
      <stop offset="1" stop-color="#E9C98F"/>
    </linearGradient>
    <linearGradient id="b" x1="144" y1="182" x2="548" y2="416" gradientUnits="userSpaceOnUse">
      <stop stop-color="#163144"/>
      <stop offset="1" stop-color="#0A1520"/>
    </linearGradient>
  </defs>
</svg>
