<svg width="640" height="180" viewBox="0 0 640 180" fill="none" xmlns="http://www.w3.org/2000/svg">
  <rect width="640" height="180" rx="28" fill="#120E0A"/>
  <rect x="6" y="6" width="628" height="168" rx="22" stroke="#D0A169" stroke-opacity="0.38" stroke-width="2"/>

  <g transform="translate(28 26)">
    <rect width="128" height="128" rx="26" fill="#0C0907"/>
    <rect x="8" y="8" width="112" height="112" rx="20" stroke="#D0A169" stroke-opacity="0.42" stroke-width="1.5"/>
    <path d="M34 24H68V92C68 108.569 54.5685 122 38 122H34V24Z" fill="#F6EDDF"/>
    <path d="M68 24H104C118.359 24 130 35.6406 130 50V50C130 64.3594 118.359 76 104 76H68V24Z" fill="#D0A169"/>
    <path d="M68 76H100C114.359 76 126 87.6406 126 102V102C126 116.359 114.359 128 100 128H68V76Z" fill="#A97C47"/>
  </g>

  <text x="184" y="80" fill="#F6EDDF" font-family="Manrope, Arial, sans-serif" font-size="40" font-weight="700" letter-spacing="0.8">JB3Ai</text>
  <text x="184" y="112" fill="#D9BE97" font-family="Manrope, Arial, sans-serif" font-size="16" letter-spacing="2.4">JONATHAN BLACKBURN OS</text>
</svg>
