<svg width="640" height="180" viewBox="0 0 640 180" fill="none" xmlns="http://www.w3.org/2000/svg">
  <rect width="640" height="180" rx="32" fill="#02070C"/>
  <rect x="8" y="8" width="624" height="164" rx="24" stroke="url(#a)" stroke-opacity="0.28"/>
  <circle cx="90" cy="90" r="54" fill="#0A1520"/>
  <circle cx="90" cy="90" r="44" stroke="url(#b)" stroke-width="3"/>
  <path d="M64 54H84C106.091 54 124 71.9086 124 94V126H104C81.9086 126 64 108.091 64 86V54Z" fill="url(#c)"/>
  <path d="M92 66H104C119.464 66 132 78.536 132 94V118H120C104.536 118 92 105.464 92 90V66Z" fill="#02070C" fill-opacity="0.76"/>
  <path d="M111 57L134 80" stroke="#E9C98F" stroke-width="6" stroke-linecap="round"/>
  <text x="176" y="76" fill="#F6F7F1" font-family="Manrope, Arial, sans-serif" font-size="18" letter-spacing="6">JONATHAN BLACKBURN OS</text>
  <text x="176" y="110" fill="#D7DEE5" font-family="Fraunces, Georgia, serif" font-size="34">Dark surface placeholder identity</text>
  <text x="176" y="142" fill="#94A8BA" font-family="Manrope, Arial, sans-serif" font-size="16">Reserved for darker placements and exported assets</text>
  <defs>
    <linearGradient id="a" x1="42" y1="12" x2="608" y2="176" gradientUnits="userSpaceOnUse">
      <stop stop-color="#58D6DA"/>
      <stop offset="1" stop-color="#E9C98F"/>
    </linearGradient>
    <linearGradient id="b" x1="56" y1="46" x2="128" y2="126" gradientUnits="userSpaceOnUse">
      <stop stop-color="#58D6DA"/>
      <stop offset="1" stop-color="#74D3A4"/>
    </linearGradient>
    <linearGradient id="c" x1="64" y1="54" x2="126" y2="126" gradientUnits="userSpaceOnUse">
      <stop stop-color="#58D6DA"/>
      <stop offset="1" stop-color="#74D3A4"/>
    </linearGradient>
  </defs>
</svg>
